<mxfile host="Electron" agent="Mozilla/5.0 (Windows NT 10.0; Win64; x64) AppleWebKit/537.36 (KHTML, like Gecko) draw.io/26.1.1 Chrome/132.0.6834.210 Electron/34.3.3 Safari/537.36" version="26.1.1">
  <diagram name="Page-1" id="5DgEvVra35wKPvQROqer">
    <mxGraphModel dx="2074" dy="1196" grid="1" gridSize="10" guides="1" tooltips="1" connect="1" arrows="1" fold="1" page="1" pageScale="1" pageWidth="850" pageHeight="1100" math="0" shadow="0">
      <root>
        <mxCell id="0" />
        <mxCell id="1" parent="0" />
        <mxCell id="YmjbShvx0cRq_aTDP8F8-9" style="edgeStyle=orthogonalEdgeStyle;rounded=0;orthogonalLoop=1;jettySize=auto;html=1;exitX=0.5;exitY=1;exitDx=0;exitDy=0;" edge="1" parent="1" source="YmjbShvx0cRq_aTDP8F8-1" target="YmjbShvx0cRq_aTDP8F8-2">
          <mxGeometry relative="1" as="geometry" />
        </mxCell>
        <mxCell id="YmjbShvx0cRq_aTDP8F8-1" value="Start" style="ellipse;whiteSpace=wrap;html=1;" vertex="1" parent="1">
          <mxGeometry x="325" y="70" width="115" height="80" as="geometry" />
        </mxCell>
        <mxCell id="YmjbShvx0cRq_aTDP8F8-13" style="edgeStyle=orthogonalEdgeStyle;rounded=0;orthogonalLoop=1;jettySize=auto;html=1;exitX=0.5;exitY=1;exitDx=0;exitDy=0;" edge="1" parent="1" source="YmjbShvx0cRq_aTDP8F8-2">
          <mxGeometry relative="1" as="geometry">
            <mxPoint x="383" y="270" as="targetPoint" />
          </mxGeometry>
        </mxCell>
        <mxCell id="YmjbShvx0cRq_aTDP8F8-2" value="&amp;nbsp;Input milesTraveled" style="shape=parallelogram;perimeter=parallelogramPerimeter;whiteSpace=wrap;html=1;fixedSize=1;" vertex="1" parent="1">
          <mxGeometry x="305" y="160" width="155" height="60" as="geometry" />
        </mxCell>
        <mxCell id="YmjbShvx0cRq_aTDP8F8-3" value="Input GallonsOfGasUsed" style="shape=parallelogram;perimeter=parallelogramPerimeter;whiteSpace=wrap;html=1;fixedSize=1;" vertex="1" parent="1">
          <mxGeometry x="290" y="280" width="150" height="80" as="geometry" />
        </mxCell>
        <mxCell id="YmjbShvx0cRq_aTDP8F8-4" value="milesPerGallon = milesTraveled / gallonsOfGasUsed" style="rounded=0;whiteSpace=wrap;html=1;" vertex="1" parent="1">
          <mxGeometry x="260" y="390" width="220" height="90" as="geometry" />
        </mxCell>
        <mxCell id="YmjbShvx0cRq_aTDP8F8-5" value="Stop" style="ellipse;whiteSpace=wrap;html=1;" vertex="1" parent="1">
          <mxGeometry x="290" y="610" width="120" height="80" as="geometry" />
        </mxCell>
        <mxCell id="YmjbShvx0cRq_aTDP8F8-16" style="edgeStyle=orthogonalEdgeStyle;rounded=0;orthogonalLoop=1;jettySize=auto;html=1;exitX=0.5;exitY=1;exitDx=0;exitDy=0;" edge="1" parent="1" source="YmjbShvx0cRq_aTDP8F8-6">
          <mxGeometry relative="1" as="geometry">
            <mxPoint x="350" y="600" as="targetPoint" />
          </mxGeometry>
        </mxCell>
        <mxCell id="YmjbShvx0cRq_aTDP8F8-6" value="Output milesPerGallon" style="shape=parallelogram;perimeter=parallelogramPerimeter;whiteSpace=wrap;html=1;fixedSize=1;" vertex="1" parent="1">
          <mxGeometry x="270" y="510" width="160" height="80" as="geometry" />
        </mxCell>
        <mxCell id="YmjbShvx0cRq_aTDP8F8-7" value="" style="endArrow=none;html=1;rounded=0;" edge="1" parent="1">
          <mxGeometry width="50" height="50" relative="1" as="geometry">
            <mxPoint x="400" y="630" as="sourcePoint" />
            <mxPoint x="450" y="580" as="targetPoint" />
          </mxGeometry>
        </mxCell>
        <mxCell id="YmjbShvx0cRq_aTDP8F8-8" value="" style="endArrow=none;html=1;rounded=0;" edge="1" parent="1">
          <mxGeometry width="50" height="50" relative="1" as="geometry">
            <mxPoint x="400" y="630" as="sourcePoint" />
            <mxPoint x="450" y="580" as="targetPoint" />
          </mxGeometry>
        </mxCell>
        <mxCell id="YmjbShvx0cRq_aTDP8F8-10" value="" style="endArrow=classic;startArrow=classic;html=1;rounded=0;" edge="1" parent="1">
          <mxGeometry width="50" height="50" relative="1" as="geometry">
            <mxPoint x="400" y="630" as="sourcePoint" />
            <mxPoint x="450" y="580" as="targetPoint" />
          </mxGeometry>
        </mxCell>
        <mxCell id="YmjbShvx0cRq_aTDP8F8-11" value="" style="endArrow=none;html=1;rounded=0;" edge="1" parent="1">
          <mxGeometry width="50" height="50" relative="1" as="geometry">
            <mxPoint x="400" y="630" as="sourcePoint" />
            <mxPoint x="450" y="580" as="targetPoint" />
          </mxGeometry>
        </mxCell>
        <mxCell id="YmjbShvx0cRq_aTDP8F8-12" value="" style="endArrow=classic;html=1;rounded=0;" edge="1" parent="1">
          <mxGeometry width="50" height="50" relative="1" as="geometry">
            <mxPoint x="400" y="630" as="sourcePoint" />
            <mxPoint x="450" y="580" as="targetPoint" />
          </mxGeometry>
        </mxCell>
        <mxCell id="YmjbShvx0cRq_aTDP8F8-14" style="edgeStyle=orthogonalEdgeStyle;rounded=0;orthogonalLoop=1;jettySize=auto;html=1;exitX=0.5;exitY=1;exitDx=0;exitDy=0;entryX=0.473;entryY=-0.044;entryDx=0;entryDy=0;entryPerimeter=0;" edge="1" parent="1" source="YmjbShvx0cRq_aTDP8F8-3" target="YmjbShvx0cRq_aTDP8F8-4">
          <mxGeometry relative="1" as="geometry" />
        </mxCell>
        <mxCell id="YmjbShvx0cRq_aTDP8F8-15" style="edgeStyle=orthogonalEdgeStyle;rounded=0;orthogonalLoop=1;jettySize=auto;html=1;exitX=0.5;exitY=1;exitDx=0;exitDy=0;entryX=0.625;entryY=-0.025;entryDx=0;entryDy=0;entryPerimeter=0;" edge="1" parent="1" source="YmjbShvx0cRq_aTDP8F8-4" target="YmjbShvx0cRq_aTDP8F8-6">
          <mxGeometry relative="1" as="geometry" />
        </mxCell>
      </root>
    </mxGraphModel>
  </diagram>
</mxfile>
